<svg xmlns="http://www.w3.org/2000/svg" xmlns:xlink="http://www.w3.org/1999/xlink" viewBox="0 0 300 300" width="300" height="300" preserveAspectRatio="xMidYMid meet" style="width: 100%; height: 100%; transform: translate3d(0px, 0px, 0px); content-visibility: visible;" id="Add Note"><defs><clipPath id="__lottie_element_1262"><rect width="300" height="300" x="0" y="0"/></clipPath></defs><g clip-path="url(#__lottie_element_1262)"><g transform="matrix(1,0,0,1,96.11199951171875,79.8198471069336)" opacity="1" style="display: block;"><g opacity="1" transform="matrix(1,0,0,1,74.01899719238281,17.73200035095215)"><path stroke-linecap="round" stroke-linejoin="round" fill-opacity="0" stroke="rgb(0,0,0)" stroke-opacity="1" stroke-width="2.827" d=" M-10.913000106811523,10.663000106811523 C-10.913000106811523,10.663000106811523 10.913000106811523,10.663000106811523 10.913000106811523,10.663000106811523 C10.913000106811523,10.663000106811523 -10.913000106811523,-10.663000106811523 -10.913000106811523,-10.663000106811523 C-10.913000106811523,-10.663000106811523 -10.913000106811523,10.663000106811523 -10.913000106811523,10.663000106811523z"/></g><g opacity="1" transform="matrix(1,0,0,1,45.999000549316406,59.11000061035156)"><path stroke-linecap="round" stroke-linejoin="round" fill-opacity="0" stroke="rgb(0,0,0)" stroke-opacity="1" stroke-width="2.827" d=" M38.93199920654297,52.04199981689453 C38.93199920654297,52.04199981689453 -38.93199920654297,52.04199981689453 -38.93199920654297,52.04199981689453 C-38.93199920654297,52.04199981689453 -38.93199920654297,-52.04199981689453 -38.93199920654297,-52.04199981689453 C-38.93199920654297,-52.04199981689453 17.106000900268555,-52.04199981689453 17.106000900268555,-52.04199981689453 C17.106000900268555,-52.04199981689453 38.93199920654297,-30.714000701904297 38.93199920654297,-30.714000701904297 C38.93199920654297,-30.714000701904297 38.93199920654297,52.04199981689453 38.93199920654297,52.04199981689453z"/></g></g><g transform="matrix(0,1,-1,0,275.656982421875,99.08574676513672)" opacity="1" style="display: block;"><g opacity="1" transform="matrix(1,0,0,1,0,0)"><g opacity="1" transform="matrix(1,0,0,1,78.9749984741211,100.56999969482422)"><path fill="rgb(255,255,255)" fill-opacity="1" d=" M0,-21.733999252319336 C-11.984000205993652,-21.733999252319336 -21.733999252319336,-11.986000061035156 -21.733999252319336,-0.0010000000474974513 C-21.733999252319336,11.984999656677246 -11.984000205993652,21.735000610351562 0,21.735000610351562 C11.984000205993652,21.735000610351562 21.733999252319336,11.984999656677246 21.733999252319336,-0.0010000000474974513 C21.733999252319336,-11.986000061035156 11.984000205993652,-21.733999252319336 0,-21.733999252319336z"/></g><g opacity="1" transform="matrix(1,0,0,1,78.9749984741211,100.57099914550781)"><path fill="rgb(255,255,255)" fill-opacity="1" d=" M17.493999481201172,0 C17.493999481201172,9.661999702453613 9.661999702453613,17.493999481201172 0,17.493999481201172 C-9.661999702453613,17.493999481201172 -17.493999481201172,9.661999702453613 -17.493999481201172,0 C-17.493999481201172,-9.661999702453613 -9.661999702453613,-17.493999481201172 0,-17.493999481201172 C9.661999702453613,-17.493999481201172 17.493999481201172,-9.661999702453613 17.493999481201172,0z"/><path stroke-linecap="round" stroke-linejoin="round" fill-opacity="0" stroke="rgb(0,0,0)" stroke-opacity="1" stroke-width="2.827" d=" M17.493999481201172,0 C17.493999481201172,9.661999702453613 9.661999702453613,17.493999481201172 0,17.493999481201172 C-9.661999702453613,17.493999481201172 -17.493999481201172,9.661999702453613 -17.493999481201172,0 C-17.493999481201172,-9.661999702453613 -9.661999702453613,-17.493999481201172 0,-17.493999481201172 C9.661999702453613,-17.493999481201172 17.493999481201172,-9.661999702453613 17.493999481201172,0z"/></g><g opacity="1" transform="matrix(1,0,0,1,0,0)"><path stroke-linecap="round" stroke-linejoin="round" fill-opacity="0" stroke="rgb(0,0,0)" stroke-opacity="1" stroke-width="2.827" d=" M78.9749984741211,91.62000274658203 C78.9749984741211,91.62000274658203 78.9749984741211,109.52200317382812 78.9749984741211,109.52200317382812"/></g><g opacity="1" transform="matrix(1,0,0,1,0,0)"><path stroke-linecap="round" stroke-linejoin="round" fill-opacity="0" stroke="rgb(0,0,0)" stroke-opacity="1" stroke-width="2.827" d=" M87.9260025024414,100.57099914550781 C87.9260025024414,100.57099914550781 70.02400207519531,100.57099914550781 70.02400207519531,100.57099914550781"/></g></g></g><g transform="matrix(0.2004145383834839,0,0,1,93.94249725341797,-5.4941558837890625)" opacity="1" style="display: block;"><g opacity="1" transform="matrix(1,0,0,1,96.11199951171875,85.31400299072266)"><g opacity="1" transform="matrix(1,0,0,1,0,0)"><path stroke-linecap="round" stroke-linejoin="round" fill-opacity="0" stroke="rgb(0,0,0)" stroke-opacity="1" stroke-width="2.827" d=" M21.37700080871582,39.48899841308594 C21.37700080871582,39.48899841308594 69.60299682617188,39.48899841308594 69.60299682617188,39.48899841308594"/></g></g></g><g transform="matrix(0.693742036819458,0,0,1,35.98194122314453,-5.494148254394531)" opacity="1" style="display: block;"><g opacity="1" transform="matrix(1,0,0,1,96.11199951171875,85.31399536132812)"><g opacity="1" transform="matrix(1,0,0,1,0,0)"><path stroke-linecap="round" stroke-linejoin="round" fill-opacity="0" stroke="rgb(0,0,0)" stroke-opacity="1" stroke-width="2.827" d=" M21.37700080871582,53.01300048828125 C21.37700080871582,53.01300048828125 50.5369987487793,53.01300048828125 50.5369987487793,53.01300048828125"/></g></g></g><g transform="matrix(0.9238637685775757,0,0,1,11.676483154296875,-5.494148254394531)" opacity="1" style="display: block;"><g opacity="1" transform="matrix(1,0,0,1,96.11099243164062,85.31399536132812)"><g opacity="1" transform="matrix(1,0,0,1,0,0)"><path stroke-linecap="round" stroke-linejoin="round" fill-opacity="0" stroke="rgb(0,0,0)" stroke-opacity="1" stroke-width="2.827" d=" M57.23899841308594,53.01300048828125 C57.23899841308594,53.01300048828125 69.60299682617188,53.01300048828125 69.60299682617188,53.01300048828125"/></g></g></g><g transform="matrix(0.9876056909561157,0,0,1,1.457183837890625,-5.4941558837890625)" opacity="1" style="display: block;"><g opacity="1" transform="matrix(1,0,0,1,96.11099243164062,85.31400299072266)"><g opacity="1" transform="matrix(1,0,0,1,0,0)"><path stroke-linecap="round" stroke-linejoin="round" fill-opacity="0" stroke="rgb(0,0,0)" stroke-opacity="1" stroke-width="2.827" d=" M31.301000595092773,66.53800201416016 C31.301000595092773,66.53800201416016 21.37700080871582,66.53800201416016 21.37700080871582,66.53800201416016"/></g></g></g><g transform="matrix(1,0,0,1,0.00099945068359375,-5.4941558837890625)" opacity="1" style="display: block;"><g opacity="1" transform="matrix(1,0,0,1,96.11100769042969,85.31400299072266)"><g opacity="1" transform="matrix(1,0,0,1,0,0)"><path stroke-linecap="round" stroke-linejoin="round" fill-opacity="0" stroke="rgb(0,0,0)" stroke-opacity="1" stroke-width="2.827" d=" M69.60299682617188,66.53800201416016 C69.60299682617188,66.53800201416016 40.44300079345703,66.53800201416016 40.44300079345703,66.53800201416016"/></g></g></g><g transform="matrix(1,0,0,1,0.00099945068359375,-5.494163513183594)" opacity="1" style="display: block;"><g opacity="1" transform="matrix(1,0,0,1,96.11199951171875,85.31401062011719)"><g opacity="1" transform="matrix(1,0,0,1,0,0)"><path stroke-linecap="round" stroke-linejoin="round" fill-opacity="0" stroke="rgb(0,0,0)" stroke-opacity="1" stroke-width="2.827" d=" M45.4900016784668,80.06199645996094 C45.4900016784668,80.06199645996094 21.37700080871582,80.06199645996094 21.37700080871582,80.06199645996094"/></g></g></g></g></svg>