<svg xmlns="http://www.w3.org/2000/svg" width="1024" height="1024" id="no-data"><path d="M169.045 322.866C181.413 321.501 184.158 338.332 171.012 341.198 158.645 342.187 156.169 325.678 169.045 322.866zM167.081 413.783C174.096 412.983 180.457 417.451 178.839 424.785L178.751 425.156C178.009 428.757 175.314 430.739 171.995 431.988 160.546 434.577 153.764 418.812 167.081 413.783zM416.121 307.012C486.507 304.872 542.73 362.048 535.658 432.812 530.149 487.935 483.845 532.154 428.36 534.758L426.265 534.908C325.821 540.292 271.186 417.44 337.435 345.037 357.535 323.071 386.205 308.319 416.121 307.012zM415.979 321.7C354.889 325.404 310.769 384.457 325.818 444.317 336.174 485.51 370.259 516.393 413.01 520.102 418.502 520.579 424.095 520.253 429.606 520.263 484.369 515.649 526.272 467.583 521.654 412.541 517.21 359.581 469.672 318.446 416.438 321.56L415.979 321.7z" transform="scale(1.6)"></path><path d="M418.314 341.074C431.729 339.652 447.34 343.872 458.901 350.379 462.676 352.503 467.272 355.339 466.355 360.387L466.279 360.781C464.287 371.846 455.322 364.598 449.537 361.998 399.623 339.565 349.296 378.936 357.539 432.139 358.376 437.058 359.772 441.89 361.892 446.415 363.944 450.794 374.04 465.497 361.875 466.588 355.731 467.139 352.068 460.195 349.778 455.569 323.925 403.348 361.016 343.188 418.314 341.074zM473.074 370.058C477.644 370.37 481.875 374.703 479.992 379.427L479.844 379.768C479.258 381.14 478.493 382.191 477.48 383.281L385.801 474.173 390.152 477.232C436.118 504.229 494.715 465.778 488.044 412.14L486.998 405.893C486.68 404.392 486.139 402.464 486.271 400.938 486.666 396.368 493.718 392.064 497.61 395.44 501.899 399.162 502.637 410.137 502.822 415.547 506.047 479.116 439.617 521.306 383.835 490.302 367.606 481.282 363.629 474.469 377.564 460.944L448.232 390.925C454.1 385.121 464.976 371.995 473.074 370.058z" transform="scale(1.6)"></path><path d="M259.257 108.219L304.5 108.533C340.092 110.32 435.512 122.105 442.738 159.782L442.822 160.312C443.997 166.962 443.46 174.563 443.468 181.339L443.483 242.688C443.472 264.3 441.633 269.852 420.081 281.654C375.885 305.854 304.756 308.924 256.002 307.188L241.358 306.769C204.11 304.529 163.984 297.954 131.684 278.458C129.49 277.133 126.475 275.299 124.766 273.376L124.572 273.155C124.233 277.983 124.473 282.974 124.47 287.819L124.471 332.126C124.488 347.733 127.482 349.952 140.97 358.154C170.898 376.351 215.551 381.742 249.648 384.263L265.036 384.954C268.414 384.982 271.983 384.75 275.333 385.063C281.764 385.665 283.997 395.026 278.701 398.748C273.687 402.272 220.385 396.184 212.816 395.074L193.63 391.787C172.306 387.913 150.267 380.988 131.793 369.65C129.48 368.231 126.625 366.876 124.699 365.016L124.474 426.592C124.477 430.559 123.824 434.644 126.232 438.048C142.63 461.223 202.612 471.249 228.264 474.409L261.465 477.723L282.792 478.161C287.817 478.179 293.933 476.628 296.896 481.908L297.13 482.344C298.047 484.004 298.306 486.849 297.194 488.425L296.948 488.75C294.413 492.381 291.438 492.467 287.227 492.489L253.566 491.935L233.756 489.844C205.075 486.777 111.834 472.506 110.048 432.335L110.002 175.351C110.001 170.352 109.242 163.803 110.728 159.037L110.919 158.438C122.442 121.214 219.887 109.199 259.257 108.219ZM124.482 182.958L124.519 244.728C124.604 251.229 123.957 253.486 128.765 258.243C150.153 279.409 200.498 287.97 228.761 290.897L251.211 292.927L291.224 293.208C328.843 292.834 401.228 283.945 426.046 259.461C429.679 255.415 429.026 254.354 429.045 248.914L428.655 184.785C427.515 186.164 422.588 188.16 420.861 189.121L412.403 193.482C381.424 208.521 334.235 214.339 299.094 215.549L247.648 214.716C215.473 212.831 145.612 204.135 124.482 182.958ZM270.709 122.694C250.328 122.976 230.383 124.783 210.222 127.744C191.956 130.427 133.421 141.49 125.071 161.152C132.648 189.317 226.738 199.273 250.625 200.842L283.497 201.25L297.902 201.015C300.818 200.969 303.774 201.112 306.681 200.912L339.062 197.264C359.496 194.111 379.374 190.465 398.823 183.184C435.366 169.503 439.195 157.455 401.25 142.168C374.164 131.255 345.219 126.819 316.279 124.225L270.709 122.694Z" transform="scale(1.6)"></path><path d="M168.499 231.601C182.033 231.198 183.122 248.671 170.583 250.488C157.282 249.278 156.168 234.771 168.499 231.601Z" transform="scale(1.6)"></path></svg>